<?xml version="1.0" encoding="UTF-8"?>
<!DOCTYPE svg PUBLIC "-//W3C//DTD SVG 1.1//EN" "http://www.w3.org/Graphics/SVG/1.1/DTD/svg11.dtd">
<!-- Creator: CorelDRAW 2021 (64-Bit) -->
<svg xmlns="http://www.w3.org/2000/svg" xml:space="preserve" width="15.748in" height="19.0945in" version="1.1" style="shape-rendering:geometricPrecision; text-rendering:geometricPrecision; image-rendering:optimizeQuality; fill-rule:evenodd; clip-rule:evenodd"
viewBox="0 0 15748.03 19094.49"
 xmlns:xlink="http://www.w3.org/1999/xlink"
 xmlns:xodm="http://www.corel.com/coreldraw/odm/2003">
 <defs>
  <style type="text/css">
   <![CDATA[
    .fil0 {fill:black;fill-rule:nonzero}
   ]]>
  </style>
 </defs>
 <g id="Layer_x0020_1">
  <metadata id="CorelCorpID_0Corel-Layer"/>
  <path class="fil0" d="M10458.4 13462.93c150.26,-1232.94 -643.7,-2019.03 -2740.03,-2688.26 -1015.75,-346.46 -1494.09,-800.52 -1482.94,-1425.13 42.65,-692.91 687.67,-1197.5 1543.31,-1213.91 673.6,6.19 1332.12,210.44 1892.33,584.19 76.11,47.24 129.26,39.37 172.57,-25.59 59.06,-95.14 206.69,-324.15 255.91,-406.82 33.46,-53.15 40.02,-122.7 -44.62,-184.38 -121.39,-89.83 -461.94,-272.24 -645.02,-349.02 -520.74,-220.87 -1082.03,-336.44 -1647.98,-337.48 -1252.62,5.25 -2239.44,797.24 -2322.11,1854.33 -53.8,763.06 324.15,1383.07 1135.17,1855.51 171.91,99.74 1102.29,469.81 1472.31,585.3 1164.04,362.2 1768.37,1011.74 1625.99,1769.62 -129.26,687.01 -852.36,1131.17 -1849.08,1144.29 -789.96,-30.19 -1501.18,-352.37 -2052.36,-780.84l-92.52 -72.18c-68.24,-52.49 -143.05,-49.21 -188.32,19.69 -32.81,50.53 -246.72,358.93 -300.53,439.63 -50.52,70.87 -22.97,110.24 29.53,153.54 229.66,192.26 536.09,402.23 744.1,508.53 575.2,292.79 1210.54,456.73 1856.07,477.15 50.03,2.33 101.89,3.5 152.57,3.5 414.53,0 825.52,-80.15 1209.39,-235.75 718.5,-305.12 1183.01,-914.7 1276.18,-1675.85l0.07 -0.09zm-2587.14 -10867.72c-1356.96,0 -2463.19,1279.53 -2515.03,2880.52l5029.99 0c-52.49,-1601.06 -1158.13,-2880.52 -2514.96,-2880.52zm5151.97 14828.15l-52.49 0.65 -10357.15 -1.31c-704.73,-26.25 -1222.44,-597.11 -1293.31,-1306.43l-6.56 -127.95 -463.85 -10187.8c-0.54,-7.6 -0.87,-15.35 -0.87,-23 0,-164.36 131.82,-298.43 296.14,-301.14l3264.31 -0c80.05,-2115.35 1599.67,-3800.39 3462.47,-3800.39 1862.73,0 3381.69,1685.63 3461.74,3799.08l3259.71 0c166.25,0.12 300.94,134.95 300.94,301.19 0,5.22 -0.15,10.56 -0.4,15.74l-507.22 10228.54 -4.59 85.96c-61.68,717.85 -642.39,1297.18 -1358.86,1316.2l-0.01 0.66z"/>
 </g>
</svg>
