<?xml version="1.0" encoding="UTF-8"?>
<!DOCTYPE svg PUBLIC "-//W3C//DTD SVG 1.1//EN" "http://www.w3.org/Graphics/SVG/1.1/DTD/svg11.dtd">
<!-- Creator: CorelDRAW 2021 (64-Bit) -->
<svg xmlns="http://www.w3.org/2000/svg" xml:space="preserve" width="15.748in" height="19.0945in" version="1.1" style="shape-rendering:geometricPrecision; text-rendering:geometricPrecision; image-rendering:optimizeQuality; fill-rule:evenodd; clip-rule:evenodd"
viewBox="0 0 15748.03 19094.49"
 xmlns:xlink="http://www.w3.org/1999/xlink"
 xmlns:xodm="http://www.corel.com/coreldraw/odm/2003">
 <defs>
  <style type="text/css">
   <![CDATA[
    .fil0 {fill:black}
   ]]>
  </style>
 </defs>
 <g id="Layer_x0020_1">
  <metadata id="CorelCorpID_0Corel-Layer"/>
  <path class="fil0" d="M7285.83 12073.84c-639.25,-55.79 -896.13,15.77 -1233.58,364.89 -266.26,275.45 -381.11,773.11 -197.56,1201.43 357.53,834.3 1443.44,968.15 2008.15,228.13 486.7,-637.78 56.72,-4735.88 224.44,-6164.82l1386.04 -4.62c157.27,667.7 157.34,919.09 562.75,1333.3 288.69,294.94 746.54,535.79 1347.31,565.61l-3.69 1361.72c-1157.28,-2.59 -1601.85,-529.14 -1876.36,-645.12 -75.52,1380.86 263.38,3258.69 -424.95,4293.5 -1637.46,2461.73 -5505.43,660.06 -4628.31,-2152.81 316.63,-1015.44 1396.59,-2048.59 2831.78,-1803.61l3.98 1422.39zm2831.44 -6640.46c798.37,-178.2 941.62,1010.71 263.48,1159.13 -801.06,175.34 -1056.33,-982.18 -263.48,-1159.13zm-4875.58 43.31c739,-348.82 1186.92,764.77 534.69,1068.92 -749.36,349.46 -1256.35,-728.3 -534.69,-1068.92zm2578.24 -2391.46c999.56,47.37 1579.05,701.3 1588.34,1654.92 -1074.01,-0.73 -2146.88,1.74 -3220.93,-8.8 179.16,-977.32 453.87,-1614.06 1632.59,-1646.12zm-3157.21 1644.56l-939.49 47.63c-619.74,135.34 -1168.48,178.28 -1433.53,851.94 -676.94,1720.71 -1459.53,10219.31 -2.5,11435.86 1176.54,550.13 10355.6,404.8 11140.4,-13.8 1605.51,-1816.81 530.09,-7906.26 104.44,-10754.16 -259.34,-1592.37 -1219.28,-1472.67 -2570.31,-1565.93 -48.98,-2579.85 -2692.24,-3849.93 -4954.46,-2523.1 -880.03,645.3 -1339.6,1392.93 -1344.56,2521.56z"/>
 </g>
</svg>
