<?xml version="1.0" encoding="UTF-8"?>
<!DOCTYPE svg PUBLIC "-//W3C//DTD SVG 1.1//EN" "http://www.w3.org/Graphics/SVG/1.1/DTD/svg11.dtd">
<!-- Creator: CorelDRAW 2021 (64-Bit) -->
<svg xmlns="http://www.w3.org/2000/svg" xml:space="preserve" width="15.748in" height="19.0945in" version="1.1" style="shape-rendering:geometricPrecision; text-rendering:geometricPrecision; image-rendering:optimizeQuality; fill-rule:evenodd; clip-rule:evenodd"
viewBox="0 0 15748.03 19094.49"
 xmlns:xlink="http://www.w3.org/1999/xlink"
 xmlns:xodm="http://www.corel.com/coreldraw/odm/2003">
 <defs>
  <style type="text/css">
   <![CDATA[
    .fil0 {fill:black}
   ]]>
  </style>
 </defs>
 <g id="Layer_x0020_1">
  <metadata id="CorelCorpID_0Corel-Layer"/>
  <g id="_2245108365360">
   <path class="fil0" d="M9032.69 12912.46c-40.22,39.27 -102.39,103.02 -141.25,148.73l-440.3 481.77c-103.95,99.25 -495.36,561.2 -584.33,628.37l-292.6 -305.06c-53.06,-60.14 -81.99,-101.39 -145.36,-162.07l-432.81 -474.09c-48.24,-57.34 -99.55,-102.28 -147.83,-159.43 -40.02,-47.39 -105.65,-117.11 -148.41,-156.2 53.27,-170.85 291.7,-378.31 440.04,-467.39 433.84,-260.53 1004.93,-260.58 1443.28,-4.78 158.89,92.72 384.69,292.52 449.57,470.16zm-6705.69 -2659.07c-155.57,-1426.99 861.79,-2810.52 2342.32,-2969.83 1555.67,-167.39 2748.37,1038 2886.54,2423.26 154.45,1548.36 -984.41,2828.85 -2348.35,2961.49 -1563.19,152.02 -2729.79,-1032.37 -2880.52,-2414.92zm11080.55 -30.74c-146.8,1505.91 -1425.84,2588.13 -2856.13,2448.46 -1388.54,-135.59 -2515.11,-1387.92 -2375.17,-2955.79 123,-1378.07 1325.36,-2590.48 2866.28,-2433.99 1482.92,150.61 2504.11,1514.29 2365.01,2941.31zm-7937.04 -5583.48c-1.46,-213.29 210.27,-659.43 301.07,-815.76 122.17,-210.32 326.02,-465.16 506.96,-614.85 392.33,-324.59 905.34,-613.91 1619.04,-606.27 658.19,7.05 1134.54,243.25 1594.55,630.5 267.43,225.14 741.26,879.54 783.28,1435.2 -683.42,91.9 -1254.32,169.28 -1888.56,417.38 -85.65,33.5 -493.21,221.1 -531.72,216.02 -103.38,-13.65 -943.06,-561.78 -2384.63,-662.21zm-904.08 -83.35c-53.38,16.75 -706,-21.81 -834.47,-22.36l-1752.31 20.94c-246.8,6.42 -661.09,-26.49 -881.66,6.17l-2.67 12848.65c133.48,28.31 6468.13,7.28 6587.02,7.28 548.24,0 1096.48,0 1644.71,0 1119.73,0 1795.49,34.6 2818.48,-486.34 1067.15,-543.43 1902.98,-1547.56 2267.59,-2697.59 306.17,-965.72 225.14,-2004.89 225.14,-3072.28l0 -5779.55c0,-253.01 17.47,-575.73 -2.67,-820.17l-1727.07 -17.39c-420.02,-5.75 -885.33,-4.87 -1305.93,16.34 -127.74,6.44 -287.98,28.08 -415.64,24.31 -12.65,-24.13 -104.83,-449.81 -159.01,-611.83 -174.04,-520.41 -534,-1085.94 -910.11,-1411.04 -632.44,-546.67 -1301.43,-873.61 -2220.24,-884.75 -460.82,-5.58 -915.65,94.9 -1293.73,259.15 -416.65,181 -619.74,328.54 -945.27,606.87 -437.78,374.32 -973.07,1155.91 -1092.17,2013.6z"/>
   <path class="fil0" d="M3828.64 9188.39l-37.74 -8.22c-66.44,185.78 -141.91,290.75 -185.74,531.86 -111.92,615.82 94.25,1200.54 501.42,1596.29 516.23,501.74 1374.35,682.04 2091.2,196.7 504.65,-341.68 979.22,-1106.75 684.31,-2018.77 -211.26,-653.34 -817.34,-1211.67 -1683.1,-1191.74 43.76,111.3 112.31,166.96 153.41,322.81 97.63,370.22 -58.35,744.59 -353.08,935.93 -520.34,337.78 -1108.64,-63.36 -1170.67,-364.86z"/>
   <path class="fil0" d="M10386.99 8297.42c36.75,79.85 88.86,133.99 130.52,242.83 304.07,794.5 -635.59,1468.69 -1251.81,975.2 -200.56,-160.61 -185.38,-230.09 -272.42,-349.19 -398.62,637.18 -265.52,1588.74 294.96,2140.45 506.46,498.52 1389.6,675.94 2102.86,195.86 945.96,-636.7 1064.08,-2082.76 86.87,-2862.31 -241.76,-192.85 -670.76,-379.06 -1090.98,-342.83z"/>
   <path class="fil0" d="M3828.64 9188.39c-30.79,-65.42 -34.39,-12.7 -37.74,-8.22l37.74 8.22z"/>
  </g>
 </g>
</svg>
